<svg width="120.66498579545451" height="156.15468749999997" viewBox="0 0 390.99999999999994 505.99999999999994" className="css-1j8o68f">
	<defs id="SvgjsDefs1741">
		<linearGradient id="SvgjsLinearGradient1748">
			<stop id="SvgjsStop1749" stop-color="#2d388a" offset="0">
			</stop>
			<stop id="SvgjsStop1750" stop-color="#00aeef" offset="1">
			</stop>
		</linearGradient>
	</defs>
	<g id="SvgjsG1742" featurekey="rootContainer" transform="matrix(1.15,0,0,1.15,-5.75,0)" fill="#fb9c2a">
		<path xmlns="http://www.w3.org/2000/svg" fill-rule="evenodd" d="M5,65 L175,0 L345, 65 L175, 10 z M5,360 L175,440 L345,355 L175, 430 z">
		</path>
	</g>
	<g id="SvgjsG1743" featurekey="symbolFeature-0" transform="matrix(1.5555555555555556,0,0,1.5555555555555556,118.22222222222223,99.50655110677083)" fill="url(#SvgjsLinearGradient1748)">
		<polygon xmlns="http://www.w3.org/2000/svg" points="38.3181152,93.2531738 64.9382935,93.2536621 95,75.618103 95,60.5276489 ">
		</polygon>
		<path xmlns="http://www.w3.org/2000/svg" d="M35.4447632,24.9294434V92.484375l58.5039673-33.7774658L35.4447632,24.9294434z M49.8583984,49.8959961  l15.2617188,8.8110352l-15.2617188,8.8095703V49.8959961z">
		</path>
		<polygon xmlns="http://www.w3.org/2000/svg" points="79.8696899,32.7814941 49.5643311,15.5639648 36.4959106,23.1086426 93.1793823,55.8353271 ">
		</polygon>
		<polygon xmlns="http://www.w3.org/2000/svg" points="20.2736206,84.9384155 33.3422852,92.4837036 33.3422852,27.0325928 20.0314331,50.0864258 ">
		</polygon>
		<polygon xmlns="http://www.w3.org/2000/svg" points="64.838501,6.7457886 51.675293,14.3452759 77.7923584,29.1832275 ">
		</polygon>
		<polygon xmlns="http://www.w3.org/2000/svg" points="5,76.1201782 18.1630859,83.7199097 17.9543457,53.6838379 ">
		</polygon>
		<polygon xmlns="http://www.w3.org/2000/svg" points="95,93.2541504 95,78.0545044 69.0911255,93.2537231 ">
		</polygon>
		<polygon xmlns="http://www.w3.org/2000/svg" points="51.8583984,53.3603516 51.8583984,64.0537109 61.1201172,58.7070312 ">
		</polygon>
	</g>
	<g id="SvgjsG1744" featurekey="nameFeature-0" transform="matrix(3.546530352678583,0,0,3.546530352678583,21,239.83932582897225)" fill="#137dc5">
		<path d="M13.84 11.36 l0 3.84 l-4.76 0 l0 24.84 l-3.84 0 l0 -24.84 l-5.24 0 l0 -3.84 l13.84 0 z M25.508 40 l-1.44 -9.88 l-4.04 0 l-1.32 9.88 l-3.84 0 l4.32 -28.6 l5.16 0 l5 28.6 l-3.84 0 z M20.548 26.32 l2.96 0 l-1.52 -10.4 z M37.376 40.24 c-3.04 0 -5.48 -2.48 -5.48 -5.48 l0 -4.36 l3.88 0 l0 4.36 c0 0.88 0.72 1.6 1.6 1.6 s1.56 -0.72 1.56 -1.6 l0 -3.8 l-7.04 -9.72 l0 -4.96 c0 -3.04 2.44 -5.52 5.48 -5.52 c3 0 5.44 2.48 5.44 5.52 l0 4.32 l-3.88 0 l0 -4.32 c0 -0.92 -0.68 -1.6 -1.56 -1.6 s-1.6 0.68 -1.6 1.6 l0 3.64 l7.04 9.72 l0 5.12 c0 3 -2.44 5.48 -5.44 5.48 z M55.36399999999999 39.84 l-4.2 -15.76 l-0.6 1 l0 14.88 l-3.72 0 l0 -28.52 l3.72 0 l0 6.2 l2.48 -6.2 l4.6 0 l-3.8 8.24 l5.4 20.16 l-3.88 0 z M67.07199999999999 11.36 l0 28.48 l-3.8 0 l0 -28.48 l3.8 0 z M80.5 21.24 l0 3.76 l-5.64 0 l0 14.92 l-3.76 0 l0 -28.48 l9.32 0 l0 3.8 l-5.56 0 l0 6 l5.64 0 z M98.68799999999999 11.440000000000001 l-5.36 17.36 l0 11.2 l-3.88 0 l0 -11.24 l-4.92 -17.32 l4 0 l2.92 10.28 l3.2 -10.28 l4.04 0 z">
		</path>
	</g>
</svg>
